<svg width="30" height="28" viewBox="0 0 30 28" fill="none" xmlns="http://www.w3.org/2000/svg">
<path d="M17.8225 27.9376C17.5248 27.9376 17.2236 27.8761 16.9342 27.7501C16.118 27.3951 15.6111 26.6216 15.6111 25.7316V23.8496C15.6111 23.3175 15.1781 22.8839 14.6455 22.8839H3.96152C1.77715 22.8845 0 21.1074 0 18.923V4.02378C0 1.8394 1.77715 0.0622559 3.96152 0.0622559H26.0385C28.2229 0.0622559 30 1.8394 30 4.02378V18.9224C30 21.1068 28.2229 22.8839 26.0385 22.8839H24.0955L19.3131 27.3412C18.893 27.7337 18.3645 27.9376 17.8225 27.9376ZM3.96152 2.11655C2.90977 2.11655 2.0543 2.97202 2.0543 4.02378V18.9224C2.0543 19.9742 2.90977 20.8296 3.96152 20.8296H14.6461C16.3113 20.8296 17.6654 22.1843 17.6654 23.849V25.731C17.6654 25.7597 17.6654 25.8271 17.7539 25.8658C17.8424 25.9039 17.8916 25.8582 17.9121 25.8388L22.9904 21.1056C23.1803 20.9287 23.4311 20.8296 23.6906 20.8296H26.0385C27.0902 20.8296 27.9457 19.9742 27.9457 18.9224V4.02378C27.9457 2.97202 27.0902 2.11655 26.0385 2.11655H3.96152Z" fill="#3F4FC4"/>
</svg>
