<svg width="30" height="28" viewBox="0 0 30 28" fill="none" xmlns="http://www.w3.org/2000/svg">
<path d="M23 -6.11959e-07L29 -8.74228e-08C29.2652 -6.42368e-08 29.5196 0.105356 29.7071 0.292892C29.8946 0.480429 30 0.734783 30 1L30 17C30 17.2652 29.8946 17.5196 29.7071 17.7071C29.5196 17.8946 29.2652 18 29 18L23 18C22.7348 18 22.4804 17.8946 22.2929 17.7071C22.1054 17.5196 22 17.2652 22 17L22 0.999999C22 0.734782 22.1054 0.480428 22.2929 0.292892C22.4804 0.105356 22.7348 -6.35145e-07 23 -6.11959e-07ZM28 2L24 2L24 16L28 16L28 2ZM4 -2.27299e-06L20 -8.74228e-07C20.2652 -8.51042e-07 20.5196 0.105355 20.7071 0.292892C20.8946 0.480428 21 0.734782 21 0.999999L21 17C21 17.142 20.97 17.281 20.912 17.411L16.87 26.392C16.318 27.41 15.37 28 14.363 28C13.859 28 13.369 27.851 12.946 27.569C11.836 26.83 11 25.183 11 23.737L11 19C11 18.449 10.552 18 10 18L3 18C1.346 18 9.91899e-07 16.654 1.1365e-06 15L1.004 2.917C1 1.346 2.346 -2.41759e-06 4 -2.27299e-06ZM19 2L4 2C3.448 2 3 2.449 3 3L1.996 15.083C2 15.551 2.448 16 3 16L10 16C11.654 16 13 17.346 13 19L13 23.737C13 24.504 13.503 25.537 14.055 25.905C14.388 26.126 14.846 25.932 15.08 25.503L19 16.786L19 2Z" fill="#3F4FC4"/>
</svg>
