<svg width="21" height="21" viewBox="0 0 21 21" fill="none" xmlns="http://www.w3.org/2000/svg">
<path d="M10.5 0.000244141C4.7291 0.000244141 0 4.77036 0 10.5413C0 16.2786 4.68604 21.0002 10.5 21.0002C16.3067 21.0002 21 16.2857 21 10.5413C21 4.77036 16.2709 0.000244141 10.5 0.000244141ZM12.3457 19.5852C11.7552 19.7083 11.1275 19.7698 10.5 19.7698C9.87246 19.7698 9.24484 19.7083 8.6543 19.5852V16.7059C8.6543 16.0168 8.83887 15.7708 9.08496 15.4384C9.21026 15.2952 9.28586 15.1667 9.84777 14.3189L8.90039 14.1711C6.46398 13.8143 5.5043 12.5468 5.12277 11.5625C4.63058 10.246 4.88902 8.59704 5.77504 7.5513C5.91039 7.39122 6.02113 7.12047 5.92274 6.83751C5.738 6.27149 5.7627 5.37329 5.88574 5.02868C6.53814 5.12191 7.20899 5.58928 7.76844 5.927C8.02627 6.07745 8.16145 6.03774 8.28516 6.05005C8.73469 5.95649 9.43601 5.73013 10.5123 5.73013C11.1768 5.73013 11.8782 5.82848 12.5673 6.02536C12.6905 6.02249 12.8885 6.12728 13.2317 5.927C13.8165 5.5707 14.4646 5.11936 15.1143 5.02868C15.2373 5.37329 15.262 6.27145 15.0774 6.83751C14.9789 7.12047 15.0896 7.39122 15.2251 7.5513C16.111 8.5972 16.3694 10.246 15.8772 11.5625C15.4957 12.5468 14.536 13.8143 12.0996 14.1711L11.1522 14.3189C11.733 15.1953 11.7942 15.3004 11.9152 15.4384C12.1611 15.7708 12.3457 16.0168 12.3457 16.7059V19.5852ZM13.5762 19.2284V16.7059C13.5762 16.0045 13.4284 15.537 13.2316 15.1924C15.1019 14.688 16.4309 13.5804 17.0215 11.9931C17.649 10.3199 17.3661 8.32642 16.32 6.94821C16.5048 6.12392 16.5048 4.80723 16.0618 4.192C15.8648 3.92142 15.5941 3.77368 15.2496 3.77368H15.2373C14.2832 3.82528 13.5322 4.30578 12.7271 4.79489C11.9888 4.59801 11.2382 4.49962 10.4877 4.49962C9.72485 4.49962 8.96187 4.61036 8.28528 4.79493C7.43777 4.28379 6.69404 3.82397 5.71348 3.77368C5.40586 3.77368 5.13507 3.92142 4.93816 4.19204C4.49535 4.80728 4.49535 6.12388 4.67992 6.94821C3.63386 8.32642 3.35089 10.332 3.97847 11.9931C4.56902 13.5804 5.89801 14.688 7.7684 15.1924C7.61574 15.4594 7.49491 15.8041 7.44733 16.2705C7.06958 16.4007 6.7419 16.4432 6.43716 16.3536C6.11576 16.2586 5.86536 16.0441 5.64777 15.6781C5.15911 14.8572 4.32678 14.187 3.37911 14.2742L3.48723 15.4998C3.9261 15.4596 4.36283 15.9239 4.58973 16.3067C4.96396 16.937 5.46816 17.3503 6.08869 17.5336C6.54929 17.6694 6.97036 17.6661 7.42379 17.5694V19.2284C3.84316 17.9732 1.23047 14.5526 1.23047 10.5413C1.23047 5.44712 5.40586 1.23071 10.5 1.23071C15.5941 1.23071 19.7695 5.44712 19.7695 10.5413C19.7695 14.5526 17.1568 17.9733 13.5762 19.2284Z" fill="#3F4FC4"/>
</svg>
