<svg width="30" height="28" viewBox="0 0 30 28" fill="none" xmlns="http://www.w3.org/2000/svg">
<path d="M7 28H1C0.734784 28 0.48043 27.8946 0.292893 27.7071C0.105357 27.5196 0 27.2652 0 27V11C0 10.7348 0.105357 10.4804 0.292893 10.2929C0.48043 10.1054 0.734784 10 1 10H7C7.26522 10 7.51957 10.1054 7.70711 10.2929C7.89464 10.4804 8 10.7348 8 11V27C8 27.2652 7.89464 27.5196 7.70711 27.7071C7.51957 27.8946 7.26522 28 7 28ZM2 26H6V12H2V26ZM26 28H10C9.73478 28 9.48043 27.8946 9.29289 27.7071C9.10536 27.5196 9 27.2652 9 27V11C9 10.858 9.03 10.719 9.088 10.589L13.13 1.608C13.682 0.59 14.63 0 15.637 0C16.141 0 16.631 0.149 17.054 0.431C18.164 1.17 19 2.817 19 4.263V9C19 9.551 19.448 10 20 10H27C28.654 10 30 11.346 30 13L28.996 25.083C29 26.654 27.654 28 26 28ZM11 26H26C26.552 26 27 25.551 27 25L28.004 12.917C28 12.449 27.552 12 27 12H20C18.346 12 17 10.654 17 9V4.263C17 3.496 16.497 2.463 15.945 2.095C15.612 1.874 15.154 2.068 14.92 2.497L11 11.214V26Z" fill="#3F4FC4"/>
</svg>
