<svg width="42" height="39" viewBox="0 0 42 39" fill="none" xmlns="http://www.w3.org/2000/svg">
<path d="M13.4703 8.92473V7.9032C13.4703 7.74002 13.4055 7.58354 13.2901 7.46816C13.1748 7.35278 13.0183 7.28796 12.8551 7.28796C12.6919 7.28796 12.5354 7.35278 12.4201 7.46816C12.3047 7.58354 12.2399 7.74002 12.2399 7.9032V8.92473C12.2399 9.0879 12.3047 9.24439 12.4201 9.35977C12.5354 9.47515 12.6919 9.53996 12.8551 9.53996C13.0183 9.53996 13.1748 9.47515 13.2901 9.35977C13.4055 9.24439 13.4703 9.0879 13.4703 8.92473ZM5.69238 8.92473V7.9032C5.69238 7.74002 5.62756 7.58354 5.51218 7.46816C5.39681 7.35278 5.24032 7.28796 5.07715 7.28796C4.91398 7.28796 4.75749 7.35278 4.64211 7.46816C4.52673 7.58354 4.46191 7.74002 4.46191 7.9032V8.92473C4.46191 9.0879 4.52673 9.24439 4.64211 9.35977C4.75749 9.47515 4.91398 9.53996 5.07715 9.53996C5.24032 9.53996 5.39681 9.47515 5.51218 9.35977C5.62756 9.24439 5.69238 9.0879 5.69238 8.92473ZM8.966 9.76711C9.55171 9.76711 10.0933 9.47491 10.4147 8.9856C10.4591 8.91809 10.4897 8.84249 10.5049 8.76313C10.5201 8.68376 10.5195 8.60219 10.5031 8.52306C10.4867 8.44393 10.455 8.36881 10.4095 8.30197C10.3641 8.23513 10.306 8.1779 10.2385 8.13354C10.1343 8.06529 9.67385 7.8881 9.38641 8.31015C9.34031 8.37951 9.27784 8.43645 9.20452 8.47595C9.1312 8.51545 9.04929 8.53629 8.966 8.53664C8.88463 8.53664 8.68054 8.51449 8.54592 8.31015C8.50158 8.2426 8.44436 8.18445 8.37754 8.13901C8.31072 8.09358 8.2356 8.06175 8.15648 8.04535C8.07735 8.02895 7.99577 8.0283 7.9164 8.04343C7.83702 8.05856 7.7614 8.08918 7.69386 8.13354C7.5575 8.22315 7.46231 8.36325 7.42921 8.52302C7.3961 8.6828 7.4278 8.84918 7.51733 8.9856C7.67483 9.226 7.88977 9.42335 8.1427 9.5598C8.39564 9.69625 8.67861 9.7675 8.966 9.76711ZM41.892 28.5007C41.6449 27.6269 41.0142 26.9627 40.2343 26.6386C40.7294 25.9543 40.9283 25.0554 40.6714 24.1841C40.2391 22.7182 39.1169 22.3634 39.0144 22.3205C39.5089 21.6364 39.7373 20.7285 39.4505 19.8672C38.9321 18.308 37.8965 18.0465 37.7939 18.004C38.2883 17.3195 38.4771 16.4242 38.23 15.5506C37.8012 14.034 36.2186 13.149 34.7017 13.5778L26.6591 15.8522C26.0019 15.0825 25.6949 14.0219 25.7491 12.6921C25.842 10.4042 25.205 8.66805 23.8559 7.53176C23.1048 6.8993 22.067 6.80316 21.2114 7.28665C20.3539 7.7708 19.8999 8.71161 20.0539 9.68286C20.8217 14.5134 18.6607 17.6088 18.1525 18.2577L13.1608 19.6692C11.3526 20.1806 10.1961 21.8805 10.2958 23.683C9.48288 23.2187 8.57119 23.7464 8.25077 24.4787L7.84702 25.2165C7.50101 25.85 6.9804 26.3707 6.34707 26.7169L5.60879 27.1206C5.34033 27.2672 5.11632 27.4835 4.96029 27.7466C4.80427 28.0098 4.722 28.3101 4.72212 28.616C4.72212 29.2393 5.06181 29.8123 5.60888 30.1115L6.34716 30.5153C6.98042 30.8613 7.501 31.3819 7.84702 32.0152L8.25077 32.7535C8.39754 33.0219 8.61387 33.2459 8.87706 33.402C9.14025 33.558 9.44058 33.6403 9.74653 33.6402C10.3698 33.6402 10.9428 33.3006 11.2417 32.7535C11.2417 32.7535 11.7775 31.5887 12.3049 31.1414L13.4812 35.3004C13.9847 37.0806 15.3372 38.9196 18.4756 38.0929L20.2533 37.5901C21.2935 37.296 22.1567 36.6145 22.6841 35.6711C23.0014 35.1043 23.1731 34.4833 23.1965 33.8523C23.5108 34.1218 25.4392 36.0406 28.9649 35.1267L35.7921 33.1961C35.8699 33.1741 35.9426 33.137 36.006 33.087C36.0694 33.0369 36.1224 32.9749 36.1618 32.9043C36.2012 32.8338 36.2264 32.7562 36.2358 32.6759C36.2452 32.5957 36.2387 32.5144 36.2167 32.4366C36.1244 32.1098 35.7842 31.9191 35.4573 32.012L28.6301 33.9426C27.3429 34.3063 25.9917 34.1477 24.8243 33.495C23.6573 32.8423 22.8139 31.774 22.4499 30.4871L19.2645 19.2219L35.0368 14.7618C35.9005 14.5179 36.8018 15.0216 37.0463 15.8852C37.2905 16.7491 36.7864 17.6505 35.9229 17.8947C35.6518 17.9712 35.3922 18.2135 35.4983 18.654C35.5774 18.9845 35.9306 19.1713 36.2577 19.0786C36.6759 18.9604 37.791 18.6666 38.2668 20.2021C38.5325 21.0593 38.007 21.967 37.1434 22.2112C36.8723 22.2881 36.6092 22.5663 36.7188 22.9709C36.8079 23.2987 37.1514 23.4878 37.4783 23.3955C38.3418 23.1511 39.2432 23.6551 39.4877 24.519C39.7319 25.3826 39.2278 26.2839 38.3643 26.5281C38.0932 26.6047 37.8429 26.8665 37.9397 27.2875C38.0156 27.6189 38.372 27.8047 38.6991 27.7121C39.1176 27.5939 40.2657 27.4712 40.7082 28.8356C40.9851 29.6895 40.4484 30.6005 39.5848 30.845L37.8247 31.3426C37.7469 31.3646 37.6742 31.4017 37.6108 31.4517C37.5474 31.5018 37.4944 31.5638 37.455 31.6344C37.4155 31.7049 37.3904 31.7825 37.381 31.8628C37.3716 31.943 37.3781 32.0243 37.4001 32.1021C37.422 32.1798 37.4591 32.2525 37.5092 32.316C37.5592 32.3794 37.6213 32.4323 37.6918 32.4718C37.7623 32.5112 37.84 32.5363 37.9202 32.5458C38.0005 32.5552 38.0818 32.5487 38.1595 32.5267L39.9199 32.029C41.4359 31.6003 42.321 30.0177 41.892 28.5007ZM21.2693 9.48968C21.1809 8.93302 21.494 8.53984 21.8163 8.35789C22.1377 8.1762 22.6337 8.11147 23.0632 8.4729C24.1061 9.35121 24.5961 10.7541 24.5195 12.6417C24.4615 14.0667 24.7547 15.262 25.3892 16.2111L19.9562 17.7475C20.8331 16.1605 21.8801 13.3326 21.2693 9.48968ZM10.5663 31.425L10.1622 32.1633C10.0408 32.3856 9.83078 32.4097 9.74653 32.4097C9.66204 32.4097 9.45204 32.3857 9.3303 32.1633L8.92655 31.425C8.46792 30.5849 7.7774 29.8944 6.93729 29.4357L6.19934 29.032C5.97662 28.9102 5.95267 28.7003 5.95267 28.6161C5.95267 28.5315 5.97662 28.3216 6.19934 28.2002L6.93762 27.7964C7.77752 27.3375 8.46797 26.6471 8.92688 25.8072L9.3303 25.0689C9.45212 24.8462 9.66196 24.8221 9.74661 24.8221C9.83086 24.8221 10.0407 24.8462 10.1622 25.0689L10.5663 25.8072C11.025 26.6471 11.7153 27.3376 12.5552 27.7964L13.2935 28.2001C13.5162 28.3215 13.5402 28.5315 13.5402 28.616C13.5402 28.7003 13.5162 28.9102 13.2935 29.032L12.5552 29.4357C11.7152 29.8944 11.0248 30.5849 10.5663 31.425ZM21.6101 35.0709C21.2431 35.7271 20.6423 36.2014 19.9184 36.4062L18.1407 36.909C16.6465 37.3312 15.0875 36.4597 14.6652 34.9655L13.3716 30.3916L13.884 30.1115C14.1524 29.9648 14.3764 29.7485 14.5324 29.4854C14.6884 29.2223 14.7707 28.922 14.7707 28.6161C14.7707 27.9925 14.431 27.4196 13.884 27.1207C13.884 27.1207 12.6135 26.4861 12.0902 25.8597L11.6221 24.204C11.2148 22.764 12.0553 21.2608 13.4957 20.8532L18.0801 19.5567L21.8619 32.9304C22.0666 33.6543 21.9772 34.4144 21.6101 35.0709Z" fill="#3F4FC4"/>
<path d="M29.8427 8.21149L30.656 8.65651C31.3641 9.04343 31.9462 9.62557 32.3331 10.3337L32.7779 11.147C33.1012 11.7382 33.6966 12.0912 34.3708 12.0912C35.0447 12.0912 35.64 11.7382 35.9633 11.147L36.4081 10.3337C36.7949 9.6255 37.377 9.04334 38.0852 8.65651L38.8985 8.21149C39.49 7.88845 39.8428 7.29274 39.8428 6.61886C39.8428 5.94497 39.4901 5.34967 38.8985 5.0263L38.0852 4.58161C37.377 4.19466 36.7949 3.61238 36.4081 2.90407L35.9633 2.09081C35.64 1.49961 35.0446 1.1468 34.3708 1.1468C33.697 1.1468 33.1012 1.49961 32.7779 2.09081L32.3331 2.90407C31.9463 3.61238 31.3642 4.19466 30.656 4.58161L29.8427 5.0263C29.2515 5.34967 28.8984 5.94505 28.8984 6.61886C28.8984 7.29266 29.2511 7.88845 29.8427 8.21149ZM30.4329 6.10591L31.2462 5.66114C32.161 5.16146 32.913 4.40949 33.4126 3.4947L33.8574 2.68144C34.0077 2.4068 34.2663 2.37727 34.3704 2.37727C34.4749 2.37727 34.7335 2.4068 34.8838 2.68136L35.3286 3.4947C35.8281 4.40956 36.5801 5.16156 37.495 5.66114L38.3083 6.10591C38.5826 6.25587 38.6124 6.51476 38.6124 6.61894C38.6124 6.72336 38.5826 6.98193 38.3083 7.13188L37.4947 7.57698C36.5799 8.07658 35.828 8.82858 35.3286 9.74343L34.8838 10.5567C34.7335 10.831 34.4749 10.8608 34.3704 10.8608C34.2663 10.8608 34.0077 10.8313 33.8574 10.5567L33.4126 9.74343C32.9131 8.8285 32.1611 8.07647 31.2462 7.57698L30.4329 7.13188C30.1584 6.98193 30.1288 6.72336 30.1288 6.61886C30.1288 6.51476 30.1584 6.25587 30.4329 6.10591ZM11.1672 15.6589C11.4901 15.5876 11.8237 15.6446 12.1072 15.8201C13.008 16.3788 14.0453 16.8039 15.2091 16.9555C15.9099 17.0468 16.2607 16.743 16.4863 16.3515C16.7465 15.899 16.7001 15.3482 16.3678 14.9479C16.1335 14.6653 15.9179 14.3677 15.7222 14.0571C15.5283 13.7498 15.5632 13.358 15.8073 13.1039C17.1773 11.6789 17.9319 9.86295 17.9319 7.99066C17.9319 3.62988 13.9097 0.0820312 8.96577 0.0820312C6.81311 0.0820312 4.73189 0.764203 3.10562 2.00337C2.97586 2.1023 2.8907 2.24872 2.86889 2.41044C2.84708 2.57215 2.89039 2.7359 2.9893 2.86568C3.08821 2.99546 3.23461 3.08065 3.39632 3.10251C3.55803 3.12437 3.7218 3.08111 3.85161 2.98225C5.26477 1.90559 7.08094 1.3125 8.96577 1.3125C13.2314 1.3125 16.7013 4.30828 16.7013 7.99066C16.7013 9.54352 16.0689 11.0566 14.9204 12.2512C14.283 12.9139 14.185 13.9267 14.6817 14.714C14.906 15.0699 15.153 15.4109 15.4212 15.7349C15.4193 15.7388 14.227 15.717 12.7555 14.7746C12.2025 14.4202 11.5382 14.316 10.8996 14.458C10.2646 14.5987 9.61614 14.6694 8.96577 14.6688C4.70039 14.6688 1.23047 11.673 1.23047 7.99066C1.23047 6.85568 1.56663 5.73481 2.2027 4.7492C2.29115 4.61201 2.32149 4.44531 2.28705 4.28575C2.25261 4.1262 2.1562 3.98686 2.01904 3.89837C1.88189 3.81003 1.71527 3.77975 1.55581 3.81419C1.39635 3.84863 1.25708 3.94497 1.16862 4.08204C0.404086 5.26698 0 6.61861 0 7.99066C0 12.3514 4.02207 15.8993 8.96577 15.8993C9.71045 15.8993 10.4509 15.8186 11.1672 15.6589ZM17.9319 35.186C16.603 35.186 15.5218 34.1048 15.5218 32.7757C15.5218 31.4468 16.603 30.3656 17.9319 30.3656C19.2607 30.3656 20.3419 31.4468 20.3419 32.7757C20.3419 34.1048 19.2607 35.186 17.9318 35.186H17.9319ZM17.9319 31.5961C17.2814 31.5961 16.7523 32.1255 16.7523 32.776C16.7523 33.4261 17.2814 33.9555 17.9319 33.9555C18.5824 33.9555 19.1114 33.4261 19.1114 32.7759C19.1114 32.1255 18.5823 31.5961 17.9318 31.5961H17.9319Z" fill="#3F4FC4"/>
</svg>
