<svg width="32" height="32" viewBox="0 0 32 32" fill="none" xmlns="http://www.w3.org/2000/svg">
<path d="M29.464 14.114C29.3024 14.0296 29.1208 13.9909 28.9387 14.002C28.7567 14.0131 28.5812 14.0736 28.431 14.177L18.889 20.783L16.57 19.177C16.4027 19.0612 16.204 18.9992 16.0005 18.9992C15.797 18.9992 15.5983 19.0612 15.431 19.177L13.111 20.783L4.844 15.06L8.515 12.857C8.74242 12.7205 8.90633 12.4993 8.97065 12.242C9.03498 11.9847 8.99445 11.7124 8.858 11.485C8.79043 11.3724 8.70135 11.2742 8.59584 11.196C8.49032 11.1178 8.37044 11.0612 8.24304 11.0293C7.98574 10.965 7.71342 11.0055 7.486 11.142L2.486 14.142C2.34118 14.2346 2.22118 14.3611 2.13647 14.5107C2.05177 14.6602 2.00491 14.8282 2 15V27C2 28.654 3.346 30 5 30H27C28.654 30 30 28.654 30 27V15C30 14.628 29.793 14.287 29.464 14.114ZM4.016 27.08C4.014 27.052 4 27.028 4 27V16.909L11.354 22L4.016 27.08ZM6.202 28L16 21.216L25.799 28H6.202ZM28 27C28 27.028 27.986 27.052 27.984 27.08L20.646 22L28 16.909V27Z" fill="#3F4FC4"/>
<path d="M21.383 13.924C21.756 13.769 22 13.404 22 13V4C21.999 3.80268 21.9398 3.61003 21.8297 3.44624C21.7197 3.28244 21.5637 3.15478 21.3814 3.07927C21.1991 3.00377 20.9986 2.98377 20.8049 3.02179C20.6113 3.05981 20.4332 3.15416 20.293 3.293C18.586 5 15.935 5 14 5H12.5C10.57 5 9 6.57 9 8.5C9 10.318 10.399 11.799 12.174 11.967L13.02 16.196C13.0455 16.3251 13.0962 16.4478 13.1692 16.5572C13.2422 16.6667 13.3361 16.7606 13.4455 16.8337C13.5549 16.9068 13.6776 16.9576 13.8067 16.9831C13.9357 17.0087 14.0686 17.0085 14.1975 16.9827C14.3265 16.9568 14.4491 16.9058 14.5584 16.8325C14.6676 16.7592 14.7613 16.665 14.8341 16.5554C14.9068 16.4458 14.9573 16.323 14.9825 16.1939C15.0077 16.0647 15.0072 15.9319 14.981 15.803L14.22 12C16.133 12.002 18.648 12.061 20.293 13.706C20.4326 13.8463 20.6108 13.942 20.8048 13.9808C20.9989 14.0196 21.2002 13.9999 21.383 13.924ZM13 10H12.5C11.673 10 11 9.327 11 8.5C11 7.673 11.673 7 12.5 7H13V10ZM20 11.048C18.355 10.196 16.522 10.039 15 10.009V6.991C16.522 6.961 18.355 6.804 20 5.952V11.048ZM26 7.5H28C28.2652 7.5 28.5196 7.60536 28.7071 7.79289C28.8946 7.98043 29 8.23479 29 8.5C29 8.76522 28.8946 9.01957 28.7071 9.20711C28.5196 9.39464 28.2652 9.5 28 9.5H26C25.7348 9.5 25.4804 9.39464 25.2929 9.20711C25.1054 9.01957 25 8.76522 25 8.5C25 8.23479 25.1054 7.98043 25.2929 7.79289C25.4804 7.60536 25.7348 7.5 26 7.5ZM27.598 3.5C27.7306 3.72968 27.7665 4.00263 27.6979 4.2588C27.6293 4.51497 27.4617 4.73339 27.232 4.866L25.5 5.866C25.2704 5.99652 24.9986 6.03094 24.7437 5.96175C24.4889 5.89256 24.2718 5.72538 24.1397 5.4967C24.0077 5.26801 23.9715 4.99638 24.039 4.74108C24.1065 4.48579 24.2722 4.26755 24.5 4.134L26.232 3.134C26.3457 3.06821 26.4712 3.02549 26.6015 3.00828C26.7317 2.99107 26.864 2.99971 26.9909 3.0337C27.1178 3.0677 27.2367 3.12638 27.3409 3.20639C27.4451 3.28641 27.5324 3.38618 27.598 3.5ZM24.134 11.5C24.1996 11.3862 24.2869 11.2864 24.3911 11.2064C24.4953 11.1264 24.6142 11.0677 24.7411 11.0337C24.868 10.9997 25.0003 10.9911 25.1305 11.0083C25.2608 11.0255 25.3863 11.0682 25.5 11.134L27.232 12.134C27.3466 12.1992 27.4473 12.2864 27.5281 12.3906C27.6089 12.4949 27.6683 12.614 27.7028 12.7413C27.7374 12.8686 27.7464 13.0014 27.7294 13.1322C27.7124 13.263 27.6697 13.3891 27.6038 13.5033C27.5378 13.6175 27.4499 13.7176 27.3452 13.7977C27.2404 13.8778 27.1208 13.9364 26.9933 13.9701C26.8658 14.0038 26.7329 14.012 26.6023 13.9941C26.4716 13.9762 26.3458 13.9327 26.232 13.866L24.5 12.866C24.2703 12.7334 24.1027 12.515 24.0341 12.2588C23.9655 12.0026 24.0014 11.7297 24.134 11.5Z" fill="#3F4FC4"/>
</svg>
