<svg width="24" height="24" viewBox="0 0 24 24" fill="none" xmlns="http://www.w3.org/2000/svg">
<g clip-path="url(#clip0_130_147)">
<path d="M22.1056 24H19.6737C19.6737 19.8975 16.2326 16.5609 12 16.5609C7.76735 16.5609 4.32749 19.8987 4.32749 24H1.89563C1.89563 18.5551 6.42983 14.1291 12.0012 14.1291C17.5714 14.1291 22.1056 18.5551 22.1056 24ZM12.0012 13.3387C10.2333 13.3362 8.53853 12.6326 7.28853 11.3824C6.03853 10.1322 5.33531 8.43729 5.33306 6.66937C5.33467 4.90125 6.03768 3.20599 7.28782 1.95562C8.53796 0.705254 10.2331 0.00193164 12.0012 0C15.6794 0 18.6718 2.99118 18.6718 6.66937C18.6718 10.3476 15.6794 13.3387 12.0012 13.3387ZM12.0012 2.43186C9.6642 2.43186 7.7637 4.33235 7.7637 6.66937C7.7637 9.00638 9.6642 10.9069 12.0012 10.9069C14.3394 10.9069 16.2399 9.00638 16.2399 6.66937C16.2399 4.33235 14.337 2.43186 12.0012 2.43186Z" fill="#3F4FC4"/>
</g>
<defs>
<clipPath id="clip0_130_147">
<rect width="24" height="24" fill="white"/>
</clipPath>
</defs>
</svg>
