<svg width="38" height="40" viewBox="0 0 38 40" fill="none" xmlns="http://www.w3.org/2000/svg">
<path d="M34.6852 3.82166C34.6852 3.66626 34.6234 3.51722 34.5135 3.40734C34.4037 3.29745 34.2546 3.23572 34.0992 3.23572H14.184C14.0286 3.23572 13.8795 3.29745 13.7697 3.40734C13.6598 3.51722 13.598 3.66626 13.598 3.82166C13.598 3.97706 13.6598 4.12609 13.7697 4.23598C13.8795 4.34586 14.0286 4.40759 14.184 4.40759H33.5133V7.54994H6.64258V4.40759H11.4495C11.6049 4.40759 11.7539 4.34586 11.8638 4.23598C11.9737 4.12609 12.0354 3.97706 12.0354 3.82166C12.0354 3.66626 11.9737 3.51722 11.8638 3.40734C11.7539 3.29745 11.6049 3.23572 11.4495 3.23572H6.05664C5.90124 3.23572 5.7522 3.29745 5.64232 3.40734C5.53244 3.51722 5.4707 3.66626 5.4707 3.82166V8.13587C5.4707 8.29128 5.53244 8.44031 5.64232 8.55019C5.7522 8.66008 5.90124 8.72181 6.05664 8.72181H34.0991C34.2545 8.72181 34.4036 8.66008 34.5135 8.55019C34.6233 8.44031 34.6851 8.29128 34.6851 8.13587V3.82166H34.6852ZM34.0992 10.7856H25.4707C25.3153 10.7856 25.1663 10.8474 25.0564 10.9573C24.9465 11.0671 24.8848 11.2162 24.8848 11.3716C24.8848 11.527 24.9465 11.676 25.0564 11.7859C25.1663 11.8958 25.3153 11.9575 25.4707 11.9575H34.0991C34.2545 11.9575 34.4036 11.8958 34.5135 11.7859C34.6234 11.676 34.6851 11.527 34.6851 11.3716C34.6851 11.2162 34.6234 11.0672 34.5135 10.9573C34.4036 10.8474 34.2546 10.7857 34.0992 10.7856ZM34.0992 12.9428H23.3136C23.1582 12.9428 23.0092 13.0045 22.8993 13.1144C22.7894 13.2243 22.7277 13.3733 22.7277 13.5287C22.7277 13.6841 22.7894 13.8331 22.8993 13.943C23.0092 14.0529 23.1582 14.1146 23.3136 14.1146H34.0992C34.2546 14.1146 34.4037 14.0529 34.5135 13.943C34.6234 13.8331 34.6852 13.6841 34.6852 13.5287C34.6852 13.3733 34.6234 13.2243 34.5135 13.1144C34.4037 13.0045 34.2546 12.9428 34.0992 12.9428ZM6.05664 23.8217H10.2168C10.3722 23.8217 10.5212 23.7599 10.6311 23.65C10.741 23.5402 10.8027 23.3911 10.8027 23.2357C10.8027 23.0803 10.741 22.9313 10.6311 22.8214C10.5212 22.7115 10.3722 22.6498 10.2168 22.6498H6.05664C5.90124 22.6498 5.7522 22.7115 5.64232 22.8214C5.53244 22.9313 5.4707 23.0803 5.4707 23.2357C5.4707 23.3911 5.53244 23.5402 5.64232 23.65C5.7522 23.7599 5.90124 23.8217 6.05664 23.8217ZM6.05664 29.0603H10.2168C10.3722 29.0603 10.5212 28.9986 10.6311 28.8887C10.741 28.7788 10.8027 28.6298 10.8027 28.4744C10.8027 28.319 10.741 28.17 10.6311 28.0601C10.5212 27.9502 10.3722 27.8885 10.2168 27.8885H6.05664C5.90124 27.8885 5.7522 27.9502 5.64232 28.0601C5.53244 28.17 5.4707 28.319 5.4707 28.4744C5.4707 28.6298 5.53244 28.7788 5.64232 28.8887C5.7522 28.9986 5.90124 29.0603 6.05664 29.0603ZM6.05664 26.441H10.2168C10.3722 26.441 10.5212 26.3792 10.6311 26.2693C10.741 26.1595 10.8027 26.0104 10.8027 25.855C10.8027 25.6996 10.741 25.5506 10.6311 25.4407C10.5212 25.3308 10.3722 25.2691 10.2168 25.2691H6.05664C5.90124 25.2691 5.7522 25.3308 5.64232 25.4407C5.53244 25.5506 5.4707 25.6996 5.4707 25.855C5.4707 26.0104 5.53244 26.1595 5.64232 26.2693C5.7522 26.3792 5.90124 26.441 6.05664 26.441ZM15.515 19.0317L14.9327 18.8757C14.7833 18.8375 14.6248 18.8598 14.4917 18.9377C14.3585 19.0156 14.2615 19.1428 14.2216 19.2918C14.1817 19.4408 14.2021 19.5996 14.2785 19.7336C14.3548 19.8676 14.4809 19.9661 14.6295 20.0078L16.713 20.566C16.8632 20.6062 17.0231 20.5851 17.1576 20.5074C17.2922 20.4297 17.3904 20.3017 17.4306 20.1517L17.9889 18.0681C18.0271 17.9186 18.0048 17.7601 17.9269 17.627C17.849 17.4939 17.7218 17.3968 17.5728 17.3569C17.4238 17.317 17.2651 17.3374 17.131 17.4138C16.997 17.4901 16.8985 17.6163 16.8569 17.7648L16.6337 18.5975L15.1949 16.4393C15.1414 16.3591 15.0689 16.2932 14.9839 16.2477C14.8988 16.2022 14.8039 16.1784 14.7074 16.1784H12.3436L10.8583 13.9503C10.7713 13.8229 10.6376 13.7349 10.4861 13.7055C10.3347 13.6761 10.1777 13.7076 10.0493 13.7932C9.92096 13.8787 9.83153 14.0115 9.80044 14.1626C9.76935 14.3137 9.79912 14.471 9.88328 14.6003L11.5426 17.0892C11.5961 17.1695 11.6686 17.2353 11.7536 17.2808C11.8387 17.3263 11.9336 17.3502 12.0301 17.3502H14.3939L15.515 19.0317Z" fill="#3F4FC4"/>
<path d="M37.335 18.8926C37.4904 18.8926 37.6394 18.8308 37.7493 18.721C37.8592 18.6111 37.9209 18.462 37.9209 18.3066V0.687734C37.9209 0.308516 37.6124 0 37.2333 0H2.92289C2.54367 0 2.23523 0.308516 2.23523 0.687734V22.316L0.773985 22.6813C0.575116 22.7308 0.398539 22.8454 0.272418 23.007C0.146297 23.1685 0.0778959 23.3676 0.0781256 23.5725V28.1377C0.0778953 28.3426 0.146288 28.5417 0.272395 28.7032C0.398501 28.8647 0.575059 28.9794 0.773907 29.0288L2.23523 29.3941V32.0634C2.23523 32.9209 2.66172 33.6807 3.31375 34.1418V35.0999C3.31375 35.948 3.74141 36.6981 4.39234 37.1459V37.458C4.39234 38.8597 5.53274 40.0001 6.93445 40.0001H33.2218C34.6235 40.0001 35.7639 38.8597 35.7639 37.458V37.1459C36.4148 36.6981 36.8425 35.948 36.8425 35.0999V34.1416C37.4945 33.6805 37.921 32.9208 37.921 32.0632V21.0411C37.921 20.8857 37.8593 20.7367 37.7494 20.6268C37.6395 20.5169 37.4905 20.4552 37.3351 20.4552C37.1797 20.4552 37.0306 20.5169 36.9208 20.6268C36.8109 20.7367 36.7491 20.8857 36.7491 21.0411V32.0631C36.7491 32.8198 36.1336 33.4353 35.377 33.4353H28.3681V31.3715H35.178C35.3334 31.3715 35.4825 31.3098 35.5924 31.1999C35.7023 31.09 35.764 30.941 35.764 30.7855V26.4713C35.764 26.3159 35.7023 26.1669 35.5924 26.057C35.4825 25.9471 35.3334 25.8854 35.178 25.8854H30.6792V24.2213C30.6795 24.1047 30.6504 23.9899 30.5946 23.8874C30.5389 23.7849 30.4583 23.6981 30.3602 23.6349L28.9819 22.743H34.0994C34.2548 22.743 34.4038 22.6813 34.5137 22.5714C34.6236 22.4615 34.6853 22.3125 34.6853 22.1571C34.6853 22.0017 34.6236 21.8527 34.5137 21.7428C34.4038 21.6329 34.2548 21.5712 34.0994 21.5712H28.368V20.5859H34.0994C34.2548 20.5859 34.4038 20.5242 34.5137 20.4143C34.6236 20.3044 34.6853 20.1554 34.6853 20C34.6853 19.8446 34.6236 19.6956 34.5137 19.5857C34.4038 19.4758 34.2548 19.4141 34.0994 19.4141H28.368V18.4288H30.8637C31.0191 18.4288 31.1681 18.3671 31.278 18.2572C31.3879 18.1473 31.4496 17.9983 31.4496 17.8429C31.4496 17.6875 31.3879 17.5385 31.278 17.4286C31.1681 17.3187 31.0191 17.257 30.8637 17.257H28.368V16.7173C28.3678 16.553 28.3074 16.3944 28.1982 16.2716H34.0994C34.2548 16.2716 34.4038 16.2099 34.5137 16.1C34.6236 15.9901 34.6853 15.8411 34.6853 15.6857C34.6853 15.5303 34.6236 15.3813 34.5137 15.2714C34.4038 15.1615 34.2548 15.0998 34.0994 15.0998H23.3137C23.1583 15.0998 23.0093 15.1615 22.8994 15.2714C22.7895 15.3813 22.7278 15.5303 22.7278 15.6857C22.7278 15.8411 22.7895 15.9901 22.8994 16.1C23.0093 16.2099 23.1583 16.2716 23.3137 16.2716H27.1869L26.6537 16.7287C26.4423 16.9098 26.2268 17.0859 26.0073 17.257H23.3137C23.1583 17.257 23.0093 17.3187 22.8994 17.4286C22.7895 17.5385 22.7278 17.6875 22.7278 17.8429C22.7278 17.9983 22.7895 18.1473 22.8994 18.2572C23.0093 18.3671 23.1583 18.4288 23.3137 18.4288H24.3091C23.4896 18.927 22.6313 19.3585 21.7426 19.7191V11.3716C21.7426 11.2162 21.6808 11.0671 21.571 10.9572C21.4611 10.8474 21.312 10.7856 21.1566 10.7856H6.0568C5.9014 10.7856 5.75236 10.8474 5.64248 10.9572C5.53259 11.0671 5.47086 11.2162 5.47086 11.3716V20.1845H3.40711V1.17188H36.7491V18.3066C36.7491 18.462 36.8108 18.6111 36.9207 18.721C37.0306 18.8308 37.1796 18.8926 37.335 18.8926ZM5.93781 31.5256L6.36219 33.4353H4.77906C4.02258 33.4353 3.40711 32.8198 3.40711 32.0634V31.5256H5.93781ZM1.25 27.9398V23.7702L2.23523 23.5238V28.1861L1.25 27.9398ZM4.77906 34.6072H6.62258L7.02313 36.4096H5.79547C5.0732 36.4096 4.48563 35.822 4.48563 35.0998V34.5903C4.58303 34.6016 4.68101 34.6072 4.77906 34.6072ZM5.56891 37.5713C5.64423 37.5781 5.71983 37.5816 5.79547 37.5816H7.28352L7.56055 38.8281H6.93445C6.21711 38.8281 5.62672 38.274 5.56891 37.5713ZM8.76102 38.8281L7.1382 31.5256H10.1623L11.6172 37.2544C11.6599 37.4227 11.7575 37.572 11.8946 37.6786C12.0317 37.7852 12.2004 37.8431 12.3741 37.843C12.8177 37.843 13.1787 38.2039 13.1787 38.6476V38.8281H8.76102ZM13.3144 31.5256C13.6712 31.5256 13.9616 31.2353 13.9616 30.8784V30.6782H15.021C17.0498 30.6782 19.0486 31.0201 20.962 31.6944C21.0348 31.7206 21.1119 31.7322 21.1892 31.7284C21.2664 31.7247 21.3421 31.7057 21.412 31.6726C21.4818 31.6395 21.5444 31.5928 21.5961 31.5354C21.6479 31.4779 21.6878 31.4108 21.7135 31.3379C21.7391 31.265 21.7502 31.1877 21.7458 31.1105C21.7415 31.0334 21.722 30.9578 21.6884 30.8882C21.6547 30.8186 21.6076 30.7563 21.5498 30.705C21.492 30.6537 21.4246 30.6143 21.3515 30.5891C19.3181 29.8716 17.1773 29.5054 15.021 29.5063H13.9616V22.2038H15.021C19.3856 22.2038 23.7174 20.6958 27.1962 17.8044V33.9059C26.1842 33.0651 25.088 32.3311 23.925 31.7158C23.857 31.6798 23.7825 31.6575 23.7059 31.6503C23.6293 31.6431 23.552 31.6511 23.4785 31.6737C23.4049 31.6964 23.3366 31.7333 23.2773 31.7824C23.2181 31.8315 23.1691 31.8918 23.1331 31.9598C23.0971 32.0279 23.0749 32.1023 23.0677 32.1789C23.0605 32.2555 23.0685 32.3328 23.0911 32.4063C23.1138 32.4799 23.1507 32.5482 23.1998 32.6075C23.2489 32.6667 23.3092 32.7158 23.3772 32.7517C23.7795 32.9645 24.1734 33.1925 24.5583 33.4354H11.8564L11.3714 31.5257L13.3144 31.5256ZM33.2217 38.8281H14.3506V38.6475C14.3511 38.2695 14.2425 37.8994 14.0379 37.5815H34.3608C34.4372 37.5815 34.5127 37.578 34.5873 37.5712C34.5295 38.274 33.9391 38.8281 33.2217 38.8281ZM35.3769 34.6072C35.4762 34.6072 35.5741 34.6015 35.6705 34.5903V35.0998C35.6705 35.822 35.083 36.4096 34.3607 36.4096H12.6118L12.1541 34.6072H26.2023C26.5574 34.8919 26.7479 35.0645 27.2609 35.5019C27.3584 35.5852 27.4777 35.6389 27.6046 35.6566C27.7316 35.6744 27.861 35.6555 27.9776 35.6021C28.094 35.5483 28.1926 35.4624 28.2618 35.3545C28.331 35.2465 28.3678 35.121 28.368 34.9928V34.6072H35.3769ZM34.592 27.0573V30.1996H28.368V29.3641L30.3603 28.075C30.4583 28.0118 30.5389 27.925 30.5946 27.8226C30.6503 27.7201 30.6794 27.6053 30.6791 27.4887V27.0573H34.592V27.0573ZM29.5073 27.2312L28.368 27.9684V23.7417L29.5073 24.4789V27.2312ZM6.64274 11.9575H20.5707V20.1478C18.779 20.7334 16.9059 21.0318 15.0209 21.032H13.9615V20.8316C13.9615 20.4748 13.6712 20.1845 13.3143 20.1845H6.64274V11.9575ZM12.7897 21.3563V30.3538H3.40711V21.3563H12.7897Z" fill="#3F4FC4"/>
</svg>
