<svg width="42" height="24" viewBox="0 0 42 24" fill="none" xmlns="http://www.w3.org/2000/svg">
<path d="M41.319 10.0226C38.9619 7.00037 35.9086 4.50047 32.4894 2.79341C28.9992 1.05082 25.2444 0.146675 21.3247 0.0992607C21.2167 0.0963076 20.7833 0.0963076 20.6753 0.0992607C16.7557 0.146757 13.0008 1.05082 9.51057 2.79341C6.09143 4.50047 3.03831 7.00029 0.681068 10.0226C0.239744 10.5873 0 11.2834 0 12C0 12.7167 0.239744 13.4128 0.681068 13.9774C3.03823 16.9997 6.09143 19.4996 9.51057 21.2067C13.0008 22.9493 16.7556 23.8534 20.6753 23.9008C20.7833 23.9038 21.2167 23.9038 21.3247 23.9008C25.2443 23.8533 28.9992 22.9493 32.4894 21.2067C35.9086 19.4996 38.9618 16.9998 41.319 13.9774C41.7603 13.4128 42.0001 12.7167 42.0001 12C42.0001 11.2834 41.7603 10.5873 41.319 10.0226ZM10.2739 19.678C7.08122 18.084 4.22998 15.7494 2.02835 12.9266C1.82157 12.662 1.70923 12.3359 1.70923 12C1.70923 11.6642 1.82157 11.3381 2.02835 11.0735C4.2299 8.25069 7.08113 5.91608 10.2739 4.32206C11.1737 3.87268 12.1008 3.48008 13.0497 3.14655C10.6234 5.32759 9.09475 8.48842 9.09475 12C9.09475 15.5118 10.6235 18.6728 13.05 20.8538C12.101 20.5202 11.1738 20.1275 10.2739 19.678ZM21.0001 22.1967C15.3775 22.1967 10.8033 17.6225 10.8033 11.9999C10.8033 6.37735 15.3775 1.80321 21.0001 1.80321C26.6227 1.80321 31.1969 6.37743 31.1969 12C31.1969 17.6226 26.6227 22.1967 21.0001 22.1967ZM39.9718 12.9265C37.7703 15.7493 34.919 18.0839 31.7263 19.6779C30.8273 20.1264 29.9012 20.5182 28.9532 20.8509C31.3779 18.67 32.9054 15.5101 32.9054 11.9999C32.9054 8.48784 31.3764 5.32661 28.9496 3.14557C29.8989 3.4793 30.8263 3.87217 31.7264 4.32189C34.919 5.91592 37.7703 8.25053 39.9719 11.0733C40.1787 11.3379 40.291 11.6641 40.291 11.9999C40.291 12.3358 40.1786 12.6619 39.9718 12.9265Z" fill="#3F4FC4"/>
<path d="M21.0004 7.63623C18.5942 7.63623 16.6367 9.59374 16.6367 11.9999C16.6367 14.406 18.5942 16.3635 21.0004 16.3635C23.4065 16.3635 25.364 14.406 25.364 11.9999C25.3641 9.59374 23.4066 7.63623 21.0004 7.63623ZM21.0004 14.6551C19.5364 14.6551 18.3452 13.4641 18.3452 11.9999C18.3452 10.5358 19.5362 9.34478 21.0004 9.34478C22.4644 9.34478 23.6555 10.5358 23.6555 11.9999C23.6556 13.4641 22.4644 14.6551 21.0004 14.6551Z" fill="#3F4FC4"/>
</svg>
